<svg width="128" height="128" viewBox="0 0 128 128" xmlns="http://www.w3.org/2000/svg">
  <!-- Background circle with gradient -->
  <defs>
    <linearGradient id="bgGradient" x1="0%" y1="0%" x2="100%" y2="100%">
      <stop offset="0%" style="stop-color:#667eea;stop-opacity:1" />
      <stop offset="100%" style="stop-color:#764ba2;stop-opacity:1" />
    </linearGradient>
    <linearGradient id="elephantGradient" x1="0%" y1="0%" x2="0%" y2="100%">
      <stop offset="0%" style="stop-color:#e0e0e0;stop-opacity:1" />
      <stop offset="100%" style="stop-color:#b0b0b0;stop-opacity:1" />
    </linearGradient>
  </defs>
  
  <!-- Background -->
  <circle cx="64" cy="64" r="64" fill="url(#bgGradient)"/>
  
  <!-- Elephant Icon - Simplified and clean -->
  <g transform="translate(64, 64) scale(1.0)">
    <!-- Body -->
    <ellipse cx="0" cy="20" rx="30" ry="28" fill="url(#elephantGradient)" opacity="0.95"/>
    
    <!-- Head -->
    <circle cx="0" cy="-10" r="26" fill="#d4d4d4"/>
    
    <!-- Left Ear -->
    <ellipse cx="-20" cy="-14" rx="14" ry="20" fill="#d4d4d4" transform="rotate(-20 -20 -14)"/>
    <ellipse cx="-20" cy="-13" rx="10" ry="16" fill="#f0f0f0" transform="rotate(-20 -20 -13)"/>
    
    <!-- Right Ear -->
    <ellipse cx="20" cy="-14" rx="14" ry="20" fill="#d4d4d4" transform="rotate(20 20 -14)"/>
    <ellipse cx="20" cy="-13" rx="10" ry="16" fill="#f0f0f0" transform="rotate(20 20 -13)"/>
    
    <!-- Trunk -->
    <path d="M 0 2 Q 2 12 0 22 Q -2 32 -8 38" 
          stroke="#c0c0c0" stroke-width="10" fill="none" stroke-linecap="round"/>
    <path d="M 0 2 Q 2 12 0 22 Q -2 32 -8 38" 
          stroke="#d8d8d8" stroke-width="7" fill="none" stroke-linecap="round"/>
    
    <!-- Trunk tip -->
    <circle cx="-8" cy="38" r="4" fill="#c0c0c0"/>
    
    <!-- Left Eye -->
    <circle cx="-8" cy="-12" r="3" fill="#2d2d2d"/>
    <circle cx="-7" cy="-13" r="1.2" fill="#fff"/>
    
    <!-- Right Eye -->
    <circle cx="8" cy="-12" r="3" fill="#2d2d2d"/>
    <circle cx="9" cy="-13" r="1.2" fill="#fff"/>
    
    <!-- Tusks -->
    <path d="M -5 -2 Q -7 4 -8 10" stroke="#f8f8f8" stroke-width="2.5" fill="none" stroke-linecap="round"/>
    <path d="M 5 -2 Q 7 4 8 10" stroke="#f8f8f8" stroke-width="2.5" fill="none" stroke-linecap="round"/>
    
    <!-- Happy smile -->
    <path d="M -6 -5 Q 0 -2 6 -5" stroke="#2d2d2d" stroke-width="1.5" fill="none" stroke-linecap="round"/>
    
    <!-- Memory sparkles -->
    <g opacity="0.9">
      <circle cx="32" cy="-25" r="2" fill="#fff"/>
      <circle cx="-28" cy="8" r="1.5" fill="#fff"/>
      <circle cx="30" cy="15" r="1.8" fill="#fff"/>
    </g>
  </g>
</svg>
